<svg xmlns="http://www.w3.org/2000/svg" viewBox="0 23.399999618530273 60.54999923706055 43.54999542236328" data-asc="1.2" width="60.54999923706055" height="43.54999542236328"><defs/><g fill="#000000"><g transform="translate(0, 0)"><path d="M3.95 60.20Q2.40 60.20 1.20 59.45Q0 58.70 0 56.95Q0 54.20 1.17 51.35Q2.35 48.50 4.08 45.73Q5.80 42.95 7.52 40.30Q9.25 37.65 10.43 35.25Q11.60 32.85 11.60 30.80Q11.60 29.15 10.80 29.15Q10.25 29.15 9.55 30.02Q8.85 30.90 8.55 32.60L8.00 32.50Q8.00 29.65 9.35 27.67Q10.70 25.70 12.80 24.70Q14.90 23.70 17.10 23.70Q19.65 23.70 21.88 25.15Q24.10 26.60 24.95 29.75Q25.30 31 25.48 32.55Q25.65 34.10 25.70 35.22Q25.75 36.35 25.75 36.35Q25.85 40.40 25.93 43.20Q26.00 46 26.20 47.90Q26.40 49.80 26.75 51.10Q27.10 52.35 27.68 53.13Q28.25 53.90 29.15 53.90Q30.00 53.90 30.63 53.40Q31.25 52.90 31.45 52.45L31.80 52.70Q31.80 55 30.90 56.70Q30.00 58.40 28.55 59.30Q27.10 60.20 25.50 60.20Q23.95 60.20 22.48 59.27Q21.00 58.35 19.90 56.40Q18.80 54.45 18.45 51.35Q16.90 51.25 15.43 51.17Q13.95 51.10 12.75 51.10Q11.95 51.10 11.23 51.13Q10.50 51.15 9.80 51.20Q9.35 52.75 9.08 54.33Q8.80 55.90 8.80 57.40Q8.80 58.55 7.30 59.38Q5.80 60.20 3.95 60.20M11.45 46.55Q12.70 46.20 14.10 46.08Q15.50 45.95 17.10 45.95L18.20 45.95Q18.10 42.25 17.93 38.35Q17.75 34.45 16.65 31.10Q16.25 34.70 14.65 38.65Q13.05 42.60 11.45 46.55ZM42.25 66.95Q40 66.95 38 65.95Q36 64.95 34.77 63.20Q33.55 61.45 33.55 59.25L34.15 58.95Q36.50 60.70 38.85 60.70Q40.20 60.70 41.40 59.95Q42.60 59.20 43.52 57.30Q44.45 55.40 44.97 52.05Q45.50 48.70 45.50 43.45Q45.50 39 46.07 36.05Q46.65 33.10 48.45 30.65Q47.80 30.20 46.92 29.82Q46.05 29.45 45.10 29.45Q43.50 29.45 42.47 30.63Q41.45 31.80 41.45 33.60Q41.45 34.55 41.77 35.60Q42.10 36.65 42.80 37.70Q39.80 37.70 37.82 36.63Q35.85 35.55 34.88 33.90Q33.90 32.25 33.90 30.45Q33.90 28.65 34.77 27.05Q35.65 25.45 37.40 24.42Q39.15 23.40 41.65 23.40Q43.60 23.40 46 24.17Q48.40 24.95 51.25 26.75Q53 24.70 54.40 24.20Q55.80 23.70 56.60 23.70Q58.65 23.70 59.60 25.07Q60.55 26.45 60.55 28.35Q60.55 29.60 60.08 30.80Q59.60 32 58.60 32.77Q57.60 33.55 56 33.55Q55.50 33.55 54.92 33.45Q54.35 33.35 53.65 33.10Q53.30 34 53.15 35.20Q53 36.40 53 37.80Q53 40.55 53.30 43.67Q53.60 46.80 53.60 49.80Q53.60 54.50 52.60 57.77Q51.60 61.05 49.95 63.08Q48.30 65.10 46.30 66.03Q44.30 66.95 42.25 66.95Z"/></g></g></svg>